<svg width="243.000000" height="40.000000" viewBox="0 0 243 40" fill="none" xmlns="http://www.w3.org/2000/svg" xmlns:xlink="http://www.w3.org/1999/xlink">
	<defs/>
	<path id="Vector" d="M8.33257 11.0449L5.76616 11.0449L1.41264 13.8926L1.41264 16.4121L5.58452 13.6875L5.68999 13.6875L5.68999 28.5L8.33257 28.5L8.33257 11.0449ZM27.7857 16.7227C27.1939 12.9902 24.2701 10.8047 20.5787 10.8047C16.0611 10.8047 12.7271 14.1914 12.7271 19.7754C12.7271 25.3535 16.0435 28.7402 20.5787 28.7402C24.4107 28.7402 27.2173 26.3379 27.7857 22.8809L25.1314 22.875C24.6802 25.1074 22.8052 26.3379 20.5962 26.3379C17.6021 26.3379 15.3462 24.041 15.3462 19.7754C15.3462 15.5391 17.5962 13.2129 20.6021 13.2129C22.8287 13.2129 24.6919 14.4609 25.1314 16.7227L27.7857 16.7227ZM38.5344 28.7402L39.7298 28.7402C42.4544 28.7402 43.3567 27.2109 44.1243 25.4766L50.1594 11.0449L47.3997 11.0449L43.3274 21.1348L38.7512 11.0449L35.9505 11.0449L42.0911 24.1465L41.845 24.7676C41.47 25.6816 40.8899 26.4199 39.5833 26.4199L38.5344 26.4199L38.5344 28.7402ZM52.9991 11.0449L52.9991 16.8047C52.9874 20.7012 55.3487 22.2363 59.169 22.2363C60.8507 22.2363 62.2979 22.0254 63.5518 21.6621L63.5518 28.5L66.1593 28.5L66.1593 11.0449L63.5518 11.0449L63.5518 19.4121C62.2452 19.7637 60.628 19.9746 59.169 19.9746C56.8956 19.9746 55.6007 19.2129 55.6007 16.8047L55.6007 11.0449L52.9991 11.0449ZM70.1958 28.5L81.2408 28.5L81.2408 26.2324L72.8326 26.2324L72.8326 20.8887L80.5669 20.8887L80.5669 18.6328L72.8326 18.6328L72.8326 13.3125L81.1412 13.3125L81.1412 11.0449L70.1958 11.0449L70.1958 28.5ZM84.6674 28.5L91.2065 28.5C95.0854 28.5 97.3061 26.3379 97.3061 23.209C97.3061 20.0859 95.0854 18.0879 91.2065 18.0879L87.3042 18.0879L87.3042 13.3125L95.5542 13.3125L95.5542 11.0449L84.6674 11.0449L84.6674 28.5ZM87.3042 26.2852L87.3042 20.3027L91.2065 20.3027C93.4565 20.3027 94.6987 21.5977 94.6987 23.1738C94.6987 24.791 93.4565 26.2852 91.2065 26.2852L87.3042 26.2852ZM100.426 28.5L103.063 28.5L103.063 20.8887L111.764 20.8887L111.764 28.5L114.406 28.5L114.406 11.0449L111.764 11.0449L111.764 18.6328L103.063 18.6328L103.063 11.0449L100.426 11.0449L100.426 28.5ZM120.899 18.0879L120.899 11.0449L118.256 11.0449L118.256 28.5L124.795 28.5C128.68 28.5 130.906 26.3379 130.895 23.209C130.906 20.0859 128.68 18.0879 124.795 18.0879L120.899 18.0879ZM135.143 11.0449L132.506 11.0449L132.506 28.5L135.143 28.5L135.143 11.0449ZM120.899 20.3027L124.795 20.3027C127.051 20.3027 128.299 21.5977 128.299 23.1738C128.299 24.791 127.051 26.2852 124.795 26.2852L120.899 26.2852L120.899 20.3027ZM138.983 11.0449L138.983 28.5L141.414 28.5L150.28 15.6973L150.438 15.6973L150.438 28.5L153.075 28.5L153.075 11.0449L150.637 11.0449L141.754 23.8652L141.59 23.8652L141.59 11.0449L138.983 11.0449ZM147.702 6.61523C147.702 7.47656 147.227 8.23242 146.032 8.23242C144.825 8.23242 144.373 7.46484 144.373 6.61523L142.282 6.61523C142.282 8.53125 143.741 9.84961 146.032 9.84961C148.34 9.84961 149.799 8.53125 149.799 6.61523L147.702 6.61523ZM178.75 26.1738L176.741 26.1738L176.741 11.0449L174.209 11.0449L174.209 26.2148L165.789 26.2148L165.789 11.0449L163.264 11.0449L163.264 28.5L175.897 28.5L175.897 32.625L178.522 32.625L178.75 26.1738ZM181.639 28.5L192.684 28.5L192.684 26.2324L184.276 26.2324L184.276 20.8887L192.01 20.8887L192.01 18.6328L184.276 18.6328L184.276 13.3125L192.584 13.3125L192.584 11.0449L181.639 11.0449L181.639 28.5ZM196.111 28.5L198.747 28.5L198.747 20.8887L207.449 20.8887L207.449 28.5L210.091 28.5L210.091 11.0449L207.449 11.0449L207.449 18.6328L198.747 18.6328L198.747 11.0449L196.111 11.0449L196.111 28.5ZM213.062 13.3125L218.499 13.3125L218.499 28.5L221.124 28.5L221.124 13.3125L226.574 13.3125L226.574 11.0449L213.062 11.0449L213.062 13.3125ZM229.545 28.5L232.182 28.5L232.182 22.3652L235.762 22.3652C239.811 22.3652 241.809 19.916 241.809 16.6934C241.809 13.4824 239.823 11.0449 235.768 11.0449L229.545 11.0449L229.545 28.5ZM232.182 20.1328L232.182 13.3066L235.487 13.3066C238.094 13.3066 239.161 14.7188 239.161 16.6934C239.161 18.6738 238.094 20.1328 235.522 20.1328L232.182 20.1328Z" fill-rule="evenodd" fill="#A4A4A4"/>
</svg>
