<svg width="135.000000" height="40.000000" viewBox="0 0 135 40" fill="none" xmlns="http://www.w3.org/2000/svg" xmlns:xlink="http://www.w3.org/1999/xlink">
	<desc>
			Created with Pixso.
	</desc>
	<defs/>
	<rect id="Mobile App Store Badge " rx="2.000000" width="134.000000" height="39.000000" transform="translate(0.500000 0.500000)" fill="#000000"/>
	<path id="Download on the" d="M68.8536 14.7L69.7459 14.7L69.7459 8.41626L68.8536 8.41626L68.8536 14.7ZM82.9766 14.7747C83.5991 14.7747 84.1262 14.48 84.396 13.9861L84.4666 13.9861L84.4666 14.7L85.3215 14.7L85.3215 8.41626L84.4292 8.41626L84.4292 10.8982L84.3628 10.8982C84.1179 10.4001 83.595 10.1055 82.9766 10.1055C81.8352 10.1055 81.1006 11.0103 81.1006 12.438C81.1006 13.8699 81.8269 14.7747 82.9766 14.7747ZM105.437 14.7L106.329 14.7L106.329 12.0603C106.329 11.3755 106.736 10.9148 107.466 10.9148C108.097 10.9148 108.433 11.28 108.433 12.0022L108.433 14.7L109.326 14.7L109.326 11.7822C109.326 10.7073 108.732 10.0972 107.769 10.0972C107.089 10.0972 106.611 10.4001 106.391 10.9065L106.321 10.9065L106.321 8.41626L105.437 8.41626L105.437 14.7ZM45.4147 8.71094L45.4147 14.7L47.577 14.7C49.3617 14.7 50.3951 13.6001 50.3951 11.6868C50.3951 9.80249 49.3534 8.71094 47.577 8.71094L45.4147 8.71094ZM102.367 9.05542L102.367 10.2009L101.649 10.2009L101.649 10.9521L102.367 10.9521L102.367 13.5046C102.367 14.3762 102.761 14.7249 103.753 14.7249C103.928 14.7249 104.094 14.7041 104.239 14.6792L104.239 13.9363C104.115 13.9487 104.036 13.957 103.899 13.957C103.455 13.957 103.26 13.7495 103.26 13.2764L103.26 10.9521L104.239 10.9521L104.239 10.2009L103.26 10.2009L103.26 9.05542L102.367 9.05542ZM46.3444 9.55762L47.4733 9.55762C48.7142 9.55762 49.4489 10.3462 49.4489 11.6992C49.4489 13.073 48.7267 13.8533 47.4733 13.8533L46.3444 13.8533L46.3444 9.55762ZM53.5602 14.7871C54.8801 14.7871 55.6894 13.9031 55.6894 12.438C55.6894 10.9812 54.8759 10.093 53.5602 10.093C52.2404 10.093 51.4269 10.9812 51.4269 12.438C51.4269 13.9031 52.2363 14.7871 53.5602 14.7871ZM63.6091 14.7L64.5015 14.7L64.5015 12.0562C64.5015 11.3506 64.9207 10.9106 65.5806 10.9106C66.2405 10.9106 66.5559 11.2717 66.5559 11.998L66.5559 14.7L67.4482 14.7L67.4482 11.7739C67.4482 10.699 66.8921 10.093 65.8835 10.093C65.2029 10.093 64.7546 10.396 64.5347 10.8982L64.4683 10.8982L64.4683 10.1802L63.6091 10.1802L63.6091 14.7ZM73.1019 14.7871C74.4218 14.7871 75.2311 13.9031 75.2311 12.438C75.2311 10.9812 74.4176 10.093 73.1019 10.093C71.7821 10.093 70.9686 10.9812 70.9686 12.438C70.9686 13.9031 71.778 14.7871 73.1019 14.7871ZM77.6616 14.7747C78.2551 14.7747 78.749 14.5173 79.0187 14.0649L79.0893 14.0649L79.0893 14.7L79.9484 14.7L79.9484 11.6121C79.9484 10.6575 79.3093 10.093 78.1762 10.093C77.1511 10.093 76.4206 10.5911 76.3293 11.3672L77.1926 11.3672C77.2922 11.0476 77.6367 10.865 78.1347 10.865C78.7448 10.865 79.0602 11.1348 79.0602 11.6121L79.0602 12.0022L77.8359 12.0728C76.7609 12.1392 76.155 12.6082 76.155 13.4216C76.155 14.2476 76.79 14.7747 77.6616 14.7747ZM91.108 14.7871C92.4278 14.7871 93.2371 13.9031 93.2371 12.438C93.2371 10.9812 92.4236 10.093 91.108 10.093C89.7881 10.093 88.9747 10.9812 88.9747 12.438C88.9747 13.9031 89.784 14.7871 91.108 14.7871ZM94.4183 14.7L95.3107 14.7L95.3107 12.0562C95.3107 11.3506 95.7299 10.9106 96.3898 10.9106C97.0497 10.9106 97.3651 11.2717 97.3651 11.998L97.3651 14.7L98.2574 14.7L98.2574 11.7739C98.2574 10.699 97.7013 10.093 96.6927 10.093C96.0121 10.093 95.5638 10.396 95.3439 10.8982L95.2775 10.8982L95.2775 10.1802L94.4183 10.1802L94.4183 14.7ZM113.653 13.4797C113.487 13.8325 113.117 14.0276 112.578 14.0276C111.864 14.0276 111.403 13.5254 111.374 12.7327L111.374 12.6829L114.566 12.6829L114.566 12.3716C114.566 10.9521 113.806 10.093 112.549 10.093C111.275 10.093 110.465 11.0103 110.465 12.4546C110.465 13.8989 111.258 14.7871 112.553 14.7871C113.586 14.7871 114.309 14.2891 114.512 13.4797L113.653 13.4797ZM62.5815 10.1802L61.6892 10.1802L60.884 13.6292L60.8135 13.6292L59.8838 10.1802L59.0288 10.1802L58.0991 13.6292L58.0327 13.6292L57.2234 10.1802L56.3186 10.1802L57.5637 14.7L58.481 14.7L59.4106 11.3713L59.4812 11.3713L60.415 14.7L61.3406 14.7L62.5815 10.1802ZM112.545 10.8525C113.205 10.8525 113.636 11.3132 113.657 12.0229L111.374 12.0229C111.424 11.3174 111.885 10.8525 112.545 10.8525ZM53.5602 13.9944C52.7841 13.9944 52.3483 13.4258 52.3483 12.438C52.3483 11.4585 52.7841 10.8857 53.5602 10.8857C54.3322 10.8857 54.7722 11.4585 54.7722 12.438C54.7722 13.4216 54.3322 13.9944 53.5602 13.9944ZM73.1019 13.9944C72.3258 13.9944 71.89 13.4258 71.89 12.438C71.89 11.4585 72.3258 10.8857 73.1019 10.8857C73.8739 10.8857 74.3138 11.4585 74.3138 12.438C74.3138 13.4216 73.8739 13.9944 73.1019 13.9944ZM91.108 13.9944C90.3318 13.9944 89.8961 13.4258 89.8961 12.438C89.8961 11.4585 90.3318 10.8857 91.108 10.8857C91.8799 10.8857 92.3199 11.4585 92.3199 12.438C92.3199 13.4216 91.8799 13.9944 91.108 13.9944ZM83.2297 10.9065C83.9768 10.9065 84.4458 11.5 84.4458 12.4421C84.4458 13.3884 83.981 13.9736 83.2297 13.9736C82.4744 13.9736 82.022 13.3967 82.022 12.438C82.022 11.4875 82.4785 10.9065 83.2297 10.9065ZM77.8898 14.0234C77.4042 14.0234 77.0515 13.7869 77.0515 13.3801C77.0515 12.9817 77.3337 12.77 77.9562 12.7285L79.0602 12.658L79.0602 13.0356C79.0602 13.5959 78.5622 14.0234 77.8898 14.0234Z" fill-rule="evenodd" fill="#FFFFFF"/>
	<path id="App Store" d="M82.5626 30.8042C79.8095 30.8042 77.9598 29.3846 77.8221 27.1649L79.7321 27.1649C79.8956 28.3436 81.0484 29.0921 82.7089 29.0921C84.2575 29.0921 85.3932 28.292 85.3932 27.1907C85.3932 26.2444 84.6705 25.6765 83.0272 25.2894L81.427 24.9022C79.1815 24.3774 78.1577 23.2933 78.1577 21.4694C78.1577 19.2583 79.9644 17.7871 82.6745 17.7871C85.1953 17.7871 87.0364 19.2583 87.1483 21.3489L85.2728 21.3489C85.092 20.2047 84.0941 19.4906 82.6487 19.4906C81.1259 19.4906 80.1107 20.2219 80.1107 21.3403C80.1107 22.2265 80.7645 22.7341 82.382 23.1127L83.7499 23.4482C86.2966 24.0419 87.3462 25.0743 87.3462 26.9412C87.3462 29.3158 85.5051 30.8042 82.5626 30.8042ZM53.4905 30.5031L51.4428 30.5031L50.3071 27.2079L45.5752 27.2079L44.431 30.5031L42.4521 30.5031L46.9346 18.0883L49.0081 18.0883L53.4905 30.5031ZM89.5257 21.5051L89.5257 19.2141L91.3104 19.2141L91.3104 21.5051L93.2693 21.5051L93.2693 23.0075L91.3104 23.0075L91.3104 27.6559C91.3104 28.6022 91.7005 29.0173 92.5887 29.0173C92.8626 29.0173 93.0203 29.0007 93.2693 28.9758L93.2693 30.4616C92.9788 30.5114 92.6468 30.5529 92.2982 30.5529C90.3143 30.5529 89.5257 29.8557 89.5257 28.1125L89.5257 23.0075L88.0897 23.0075L88.0897 21.5051L89.5257 21.5051ZM48.0186 20.3423L47.8724 20.3423L46.0656 25.5905L49.8168 25.5905L48.0186 20.3423ZM102.581 25.9792C102.581 28.9094 100.963 30.6774 98.3232 30.6774C95.6752 30.6774 94.0566 28.9094 94.0566 25.9792C94.0566 23.0656 95.6835 21.2892 98.3232 21.2892C100.955 21.2892 102.581 23.0656 102.581 25.9792ZM113.552 29.1584C114.632 29.1584 115.37 28.7682 115.702 28.0627L117.421 28.0627C117.014 29.6813 115.57 30.6774 113.503 30.6774C110.913 30.6774 109.327 28.9011 109.327 26.0124C109.327 23.1237 110.946 21.2892 113.494 21.2892C116.01 21.2892 117.529 23.0075 117.529 25.8464L117.529 26.4689L111.145 26.4689L111.145 26.5685C111.203 28.154 112.125 29.1584 113.552 29.1584ZM56.4959 22.9577C57.0438 21.9284 58.1063 21.3141 59.3348 21.3141C61.6341 21.3141 63.0867 23.1071 63.0867 25.9792C63.0867 28.8513 61.6341 30.6525 59.3514 30.6525C58.0648 30.6525 57.0438 30.0881 56.5706 29.1335L56.4295 29.1335L56.4295 33.508L54.6448 33.508L54.6448 21.4636L56.3631 21.4636L56.3631 22.9577L56.4959 22.9577ZM66.4927 22.9577C67.0405 21.9284 68.103 21.3141 69.3315 21.3141C71.6309 21.3141 73.0835 23.1071 73.0835 25.9792C73.0835 28.8513 71.6309 30.6525 69.3481 30.6525C68.0615 30.6525 67.0405 30.0881 66.5674 29.1335L66.4263 29.1335L66.4263 33.508L64.6416 33.508L64.6416 21.4636L66.3599 21.4636L66.3599 22.9577L66.4927 22.9577ZM105.751 30.5031L103.966 30.5031L103.966 21.4636L105.685 21.4636L105.685 22.8498L105.817 22.8498C106.075 21.9616 107.079 21.3141 108.258 21.3141C108.523 21.3141 108.864 21.3391 109.055 21.3889L109.055 23.1486C108.905 23.0988 108.374 23.0407 108.059 23.0407C106.706 23.0407 105.751 23.8957 105.751 25.1657L105.751 30.5031ZM115.711 25.1491C115.669 23.7297 114.806 22.8083 113.486 22.8083C112.166 22.8083 111.245 23.738 111.145 25.1491L115.711 25.1491ZM95.8994 25.9792C95.8994 27.9548 96.7709 29.092 98.3232 29.092C99.8671 29.092 100.747 27.9465 100.747 25.9792C100.747 24.0202 99.8671 22.8747 98.3232 22.8747C96.7709 22.8747 95.8994 24.0202 95.8994 25.9792ZM56.3963 25.9875C56.3963 27.8718 57.3343 29.0505 58.8284 29.0505C60.3475 29.0505 61.2523 27.8967 61.2523 25.9792C61.2523 24.07 60.3475 22.9162 58.8367 22.9162C57.3343 22.9162 56.3963 24.0949 56.3963 25.9875ZM66.3931 25.9875C66.3931 27.8718 67.3311 29.0505 68.8252 29.0505C70.3442 29.0505 71.249 27.8967 71.249 25.9792C71.249 24.07 70.3442 22.9162 68.8335 22.9162C67.3311 22.9162 66.3931 24.0949 66.3931 25.9875Z" fill-rule="evenodd" fill="#FFFFFF"/>
	<path id="Apple logo" d="M23.1519 8.72046C23.2487 9.98468 22.8489 11.2369 22.0374 12.2111C21.2601 13.1777 20.0408 13.7542 18.8005 13.7415C18.7214 12.5256 19.14 11.2954 19.9443 10.3801C20.7668 9.44324 21.912 8.85071 23.1519 8.72046ZM27.1255 16.1487C25.6934 17.0292 24.7906 18.6198 24.769 20.3008C24.7711 22.2 25.9391 23.9602 27.6882 24.7C27.3483 25.8044 26.8358 26.8481 26.1698 27.7925C25.2755 29.1304 24.3377 30.4375 22.8493 30.4616C22.1414 30.478 21.6636 30.2744 21.1657 30.0623C20.6464 29.8411 20.1052 29.6105 19.2583 29.6105C17.584 29.6105 17.066 30.4375 15.6789 30.495C14.2615 30.5475 13.1782 29.0671 12.2513 27.7417C10.3987 25.0351 8.95605 20.1141 10.8901 16.7656C11.7898 15.1489 13.5137 14.0975 15.363 14.0378C16.1669 14.0212 16.9384 14.3311 17.6146 14.6027C18.1319 14.8105 18.5935 14.9959 18.9715 14.9959C19.3038 14.9959 19.7525 14.8178 20.2755 14.6103C21.0992 14.2833 22.1072 13.8832 23.1344 13.9911C24.7088 14.0403 26.2221 14.8585 27.1255 16.1487Z" fill-rule="evenodd" fill="#FFFFFF"/>
	<rect id="Mobile App Store Badge " rx="2.000000" width="134.000000" height="39.000000" transform="translate(0.500000 0.500000)" stroke="#A4A4A4"/>
</svg>
