<svg width="24.000000" height="24.000000" viewBox="0 0 24 24" fill="none" xmlns="http://www.w3.org/2000/svg" xmlns:xlink="http://www.w3.org/1999/xlink">
	<desc>
			Created with Pixso.
	</desc>
	<defs/>
	<path id="Vector" d="M22.2234 0L1.77185 0C0.792175 0 0 0.773438 0 1.72968L0 22.2656C0 23.2219 0.792175 24 1.77185 24L22.2234 24C23.2031 24 24 23.2219 24 22.2703L24 1.72968C24 0.773438 23.2031 0 22.2234 0ZM7.1203 20.4515L3.5578 20.4515L3.5578 8.9953L7.1203 8.9953L7.1203 20.4515ZM5.33905 7.43439C4.19531 7.43439 3.27185 6.51093 3.27185 5.37189C3.27185 4.23279 4.19531 3.30939 5.33905 3.30939C6.47815 3.30939 7.40155 4.23279 7.40155 5.37189C7.40155 6.50623 6.47815 7.43439 5.33905 7.43439ZM20.4515 20.4515L16.8937 20.4515L16.8937 14.8828C16.8937 13.5563 16.8703 11.8453 15.0422 11.8453C13.1906 11.8453 12.9094 13.2938 12.9094 14.7891L12.9094 20.4515L9.35626 20.4515L9.35626 8.9953L12.7687 8.9953L12.7687 10.5609L12.8156 10.5609C13.2891 9.66095 14.4515 8.70935 16.1813 8.70935C19.7859 8.70935 20.4515 11.0812 20.4515 14.1656L20.4515 20.4515Z" fill-rule="nonzero" fill="#818181"/>
</svg>
