<svg width="24.000000" height="24.000000" viewBox="0 0 24 24" fill="none" xmlns="http://www.w3.org/2000/svg" xmlns:xlink="http://www.w3.org/1999/xlink">
	<desc>
			Created with Pixso.
	</desc>
	<defs/>
	<path id="Oval" d="M24 12C24 18.6274 18.6274 24 12 24C5.37256 24 0 18.6274 0 12C0 5.37256 5.37256 0 12 0C18.6274 0 24 5.37256 24 12Z" fill-rule="evenodd" fill="#818181"/>
	<path id="Path 3" d="M5.43585 11.8693C8.93408 10.3452 11.2668 9.34039 12.434 8.85492C15.7665 7.46881 16.459 7.22803 16.9103 7.22003C17.0096 7.21832 17.2316 7.24292 17.3753 7.35956C17.4967 7.45807 17.5302 7.59113 17.5461 7.68457C17.5621 7.77795 17.582 7.99072 17.5662 8.15692C17.3856 10.0544 16.6042 14.6591 16.2067 16.7843C16.0385 17.6836 15.7072 17.9851 15.3865 18.0146C14.6897 18.0787 14.1605 17.5541 13.4856 17.1116C12.4294 16.4193 11.8328 15.9883 10.8076 15.3127C9.6228 14.532 10.3909 14.1029 11.066 13.4016C11.2427 13.2181 14.3131 10.4253 14.3726 10.172C14.38 10.1403 14.3869 10.0222 14.3167 9.95984C14.2466 9.89746 14.143 9.91876 14.0683 9.93573C13.9623 9.95978 12.2751 11.075 9.00659 13.2813C8.52771 13.6102 8.09393 13.7704 7.70526 13.762C7.27679 13.7527 6.45258 13.5197 5.8399 13.3206C5.08838 13.0763 4.49115 12.9471 4.54315 12.5323C4.57025 12.3162 4.8678 12.0952 5.43585 11.8693Z" fill-rule="evenodd" fill="#000000"/>
</svg>
