<svg width="20.500000" height="24.000000" viewBox="0 0 20.5 24" fill="none" xmlns="http://www.w3.org/2000/svg" xmlns:xlink="http://www.w3.org/1999/xlink">
	<desc>
			Created with Pixso.
	</desc>
	<defs/>
	<path id="Vector" d="M15.0725 0L11.0278 0L11.0278 16.3478C11.0278 18.2957 9.47217 19.8957 7.53625 19.8957C5.60034 19.8957 4.04468 18.2957 4.04468 16.3478C4.04468 14.4348 5.5658 12.8695 7.43256 12.8L7.43256 8.69568C3.31873 8.7652 0 12.1392 0 16.3478C0 20.5913 3.38788 24 7.57086 24C11.7538 24 15.1416 20.5565 15.1416 16.3478L15.1416 7.96521C16.6627 9.07825 18.5295 9.73914 20.5 9.77393L20.5 5.66956C17.4579 5.56525 15.0725 3.06085 15.0725 0Z" fill-rule="nonzero" fill="#818181"/>
</svg>
