<svg width="24.000000" height="19.500732" viewBox="0 0 24 19.5007" fill="none" xmlns="http://www.w3.org/2000/svg" xmlns:xlink="http://www.w3.org/1999/xlink">
	<desc>
			Created with Pixso.
	</desc>
	<defs/>
	<path id="Vector" d="M7.55017 19.5007C16.6046 19.5007 21.5583 11.9974 21.5583 5.49261C21.5583 5.28168 21.5536 5.06604 21.5442 4.8551C22.5079 4.1582 23.3395 3.29498 24 2.30603C23.1025 2.70532 22.1497 2.96613 21.1739 3.07947C22.2013 2.46362 22.9705 1.49622 23.3391 0.356506C22.3726 0.92926 21.3156 1.33337 20.2134 1.55133C19.4708 0.762268 18.489 0.239868 17.4197 0.0647583C16.3504 -0.110291 15.2532 0.0717773 14.2977 0.582825C13.3423 1.09387 12.5818 1.90546 12.1339 2.89203C11.6859 3.87866 11.5754 4.98535 11.8195 6.04102C9.86249 5.94281 7.94794 5.43445 6.19995 4.54883C4.45203 3.66321 2.90967 2.42017 1.67297 0.900269C1.04437 1.98395 0.852051 3.26636 1.13501 4.48682C1.41803 5.70728 2.15509 6.77417 3.19641 7.4707C2.41461 7.44592 1.64996 7.23541 0.965637 6.85663L0.965637 6.9176C0.964905 8.05487 1.35809 9.15735 2.07831 10.0375C2.79852 10.9177 3.80133 11.5213 4.91626 11.7457C4.19208 11.9438 3.43201 11.9727 2.69482 11.8301C3.00946 12.8082 3.62158 13.6636 4.4458 14.277C5.26996 14.8905 6.26514 15.2313 7.29236 15.252C5.5484 16.6218 3.39417 17.3649 1.17657 17.3613C0.783264 17.3607 0.390381 17.3366 0 17.2892C2.25287 18.7345 4.87354 19.5021 7.55017 19.5007Z" fill-rule="nonzero" fill="#818181"/>
</svg>
